<?xml version="1.0" encoding="UTF-8"?>
<!DOCTYPE svg PUBLIC "-//W3C//DTD SVG 1.1//EN" "http://www.w3.org/Graphics/SVG/1.1/DTD/svg11.dtd">
<!-- Creator: CorelDRAW 2020 (64-Bit) -->
<svg xmlns="http://www.w3.org/2000/svg" xml:space="preserve" width="31.3633mm" height="28.6245mm" version="1.1" style="shape-rendering:geometricPrecision; text-rendering:geometricPrecision; image-rendering:optimizeQuality; fill-rule:evenodd; clip-rule:evenodd"
viewBox="0 0 8313.95 7587.93"
 xmlns:xlink="http://www.w3.org/1999/xlink"
 xmlns:xodm="http://www.corel.com/coreldraw/odm/2003">
 <defs>
  <style type="text/css">
   <![CDATA[
    .fil0 {fill:#7F5791;fill-rule:nonzero}
   ]]>
  </style>
 </defs>
 <g id="Capa_x0020_1">
  <metadata id="CorelCorpID_0Corel-Layer"/>
  <path class="fil0" d="M8080.2 3844.19c-8.09,20.36 -16.51,40.64 -24.94,61 -78.68,190.01 -173.23,374.67 -279.72,550.34 -13.57,22.37 -27.2,45.06 -41.46,67.33 -141.4,223.76 -302.38,431.64 -474.82,614.92 -17.5,18.34 -35.04,36.69 -52.51,54.63 -9.28,9.12 -18.24,18.58 -27.54,28.02 -64.65,64.36 -131.64,128.06 -200.88,190.73 -12.83,12.06 -25.93,23.73 -39.37,35.34 -624.81,559.65 -1410.47,1054.85 -2078.8,1427.56 -16.94,9.41 -33.53,18.85 -49.76,27.97 -40.64,22.37 -80.88,44.4 -120.35,65.82 -20.73,11.64 -41.78,22.88 -62.06,33.88 -117.59,63.43 -230.01,122.42 -335.54,176.44 -17.18,8.67 -34.01,17.36 -50.84,25.77 -375.04,190.97 -656.78,318.16 -761.51,364.36 -29.27,13.17 -44.75,19.64 -44.75,19.64 0,0 -7.16,-5.86 -20.81,-17.18 -68.21,-57.21 -300.85,-253.63 -613.88,-545.78 -13.84,-12.7 -27.54,-25.77 -42.02,-38.91 -85.41,-80.11 -176.44,-166.92 -271.16,-259.84 -18.32,-17.52 -36.61,-35.36 -54.82,-53.57 -35.65,-34.91 -71.47,-70.83 -107.86,-107.6 -13.78,-13.04 -27.44,-26.77 -41.04,-40.85 -537.81,-541.89 -1156.89,-1236.57 -1605.54,-1949.33 -9.33,-14.84 -18.69,-29.72 -27.7,-44.51 -51.64,-83.34 -100.81,-166.98 -147.2,-250.56 -1.35,-2.65 -3.07,-5.33 -4.43,-7.93 -10.52,-18.85 -20.99,-38.01 -31.09,-57.15 -125.52,-237.41 -230.94,-499.02 -309.43,-772.09 -6.97,-24.23 -13.84,-49.17 -20.46,-73.32 -51.51,-191.87 -89.81,-388.83 -112.4,-586.26 0,0 0,0 0.05,-0.37 -2.78,-21.9 -5.25,-43.74 -7.37,-65.56 -35.84,-360.68 -20.17,-722.7 60.28,-1059.57 4.16,-19.54 8.93,-38.6 14.05,-57.66 7.63,-29.11 15.56,-58.16 24.49,-86.74l0.05 -0.34c3.21,-10.63 6.47,-21.29 9.68,-31.57 195.79,-624.01 631.88,-1142.15 1395.49,-1377.17 23.22,-7.08 46.44,-14.21 70.22,-20.54 35.07,-9.94 71.04,-19.06 107.33,-27.78 335.57,-78.97 640.13,-69.03 912.58,-1.54 23.8,5.81 47.53,12.27 70.49,19.03 40.32,11.61 79.79,24.49 118.41,38.3 16.17,5.78 31.97,11.82 47.72,18.24 117.72,45.52 228.42,101.45 331.89,164.38l0.34 0.03c25.24,15.37 49.7,31.01 74.12,47.32 67.84,45.01 132.52,92.67 194.15,142.4 18.05,14.69 35.73,29.34 53.44,43.98 416.34,353.99 672.02,783.72 758.62,943.44 6.12,10.55 11.05,19.96 15.08,28.15 12.38,22.93 18.18,35.52 18.18,35.52 0,0 10.71,-11.64 30.64,-32.39 2.41,-2.44 4.45,-4.59 6.95,-7.34 3.61,-3.68 7.66,-7.58 11.72,-11.85 9.28,-9.12 19.43,-19.48 30.75,-30.67 15.27,-14.84 32.9,-31.44 52.17,-49.84 107.7,-101.29 277.81,-246.42 494.12,-387.08 137.58,-89.39 293.58,-176.49 464.93,-249.66 20.68,-8.88 41.99,-17.28 63.3,-25.71 78.68,-31.17 160.03,-59.17 244.17,-82.6 27.83,-7.82 56.25,-14.9 85.01,-21.9 109.08,-25.79 221.96,-43.77 337.96,-51.93 16.81,-1.09 33.93,-2.12 51.06,-2.81 46.76,-2.04 93.97,-2.25 141.95,-0.66 24.2,0.66 48.27,2.01 72.66,3.71 262.73,18.93 537.81,94.77 816.86,252.33 48.83,27.75 96.41,56.36 141.53,85.68 20.68,13.31 40.98,26.64 60.86,40.56 600.52,412.74 867.76,976.23 907.07,1576.44 3.15,46.23 4.85,92.97 5.17,139.51l-0.05 0.32c0.37,17.07 0.4,34.06 0.05,51.03 0.05,26.35 -0.9,52.57 -2.23,79.1 -14.77,345.86 -98.4,697.89 -231.26,1034.95z"/>
 </g>
</svg>
